<?xml version="1.0" standalone="no"?>
<!DOCTYPE svg PUBLIC "-//W3C//DTD SVG 20010904//EN"
 "http://www.w3.org/TR/2001/REC-SVG-20010904/DTD/svg10.dtd">
<svg version="1.0" xmlns="http://www.w3.org/2000/svg"
 width="1280.000000pt" height="1165.000000pt" viewBox="0 0 1280.000000 1165.000000"
 preserveAspectRatio="xMidYMid meet">
<metadata>
Created by potrace 1.15, written by Peter Selinger 2001-2017
</metadata>
<g transform="translate(0.000000,1165.000000) scale(0.100000,-0.100000)"
fill="#000000" stroke="none">
<path d="M2117 11636 c-134 -48 -217 -185 -254 -421 -28 -185 -19 -536 23
-855 44 -335 145 -849 240 -1224 26 -103 26 -126 -2 -126 -27 0 -154 -33 -154
-40 0 -4 12 -12 28 -19 15 -7 66 -36 114 -64 69 -40 90 -58 97 -82 24 -74 92
-338 88 -341 -2 -2 -40 3 -85 11 -174 30 -491 65 -596 65 -84 0 -211 -22 -252
-43 l-27 -14 49 -8 c115 -17 413 -128 604 -225 166 -85 166 -85 90 -93 -85 -9
-423 -78 -434 -88 -13 -12 28 -54 78 -82 23 -12 81 -40 129 -61 48 -22 139
-67 201 -100 l112 -61 -270 0 c-312 0 -312 0 -606 -109 l-165 -61 67 -7 c37
-3 100 -14 139 -23 40 -9 138 -29 218 -45 216 -42 311 -65 465 -110 140 -41
419 -141 412 -147 -2 -2 -57 -15 -122 -28 -127 -26 -336 -83 -512 -140 -59
-19 -147 -44 -196 -55 -162 -39 -249 -81 -194 -95 12 -3 75 -9 138 -14 125 -8
143 -14 302 -104 l77 -43 -71 -12 c-238 -41 -543 -201 -657 -343 -68 -85 -111
-196 -111 -284 0 -22 3 -21 64 20 99 66 303 163 391 186 92 23 295 35 395 22
l65 -8 -62 -34 c-70 -37 -133 -98 -193 -184 -22 -32 -40 -59 -40 -61 0 -1 26
10 58 26 77 38 148 48 332 47 l155 -1 -70 -18 c-253 -63 -550 -255 -743 -480
-65 -76 -147 -189 -140 -195 3 -3 345 59 375 69 101 32 490 76 728 82 l200 6
-68 -41 c-81 -48 -104 -66 -302 -232 -83 -69 -175 -143 -205 -163 l-55 -38 65
5 c36 3 76 9 89 13 18 5 12 -3 -24 -37 -142 -130 -275 -386 -275 -529 l0 -34
28 45 c90 140 338 291 566 343 65 15 103 16 57 1 -12 -3 -28 -23 -36 -42 -8
-20 -37 -68 -63 -107 -47 -69 -142 -236 -142 -250 0 -3 18 3 40 14 21 11 41
20 44 20 3 0 -8 -19 -23 -43 -44 -65 -58 -106 -91 -268 -17 -83 -35 -162 -40
-175 -6 -14 -10 -27 -10 -30 0 -13 44 2 163 55 166 73 171 75 350 111 160 32
187 35 187 20 0 -15 -69 -218 -96 -283 -14 -32 -52 -115 -84 -184 -33 -69 -60
-127 -60 -129 0 -3 24 13 53 35 56 42 167 106 167 97 0 -3 -37 -61 -81 -128
-130 -196 -217 -394 -207 -475 3 -25 7 -22 61 45 134 166 347 297 637 391 132
43 330 95 336 88 2 -2 -38 -78 -90 -168 -52 -90 -104 -189 -115 -219 l-21 -55
21 30 c12 17 59 66 103 110 91 90 170 137 267 159 l64 15 -50 -42 c-238 -201
-429 -420 -530 -610 -79 -149 -97 -221 -110 -437 l-6 -105 45 90 c76 154 255
373 333 407 24 10 96 30 161 43 98 21 140 36 261 95 79 39 146 69 148 67 2 -3
-14 -53 -37 -112 -22 -60 -39 -109 -37 -111 1 -2 29 20 62 48 68 58 104 83
110 76 2 -2 -10 -46 -26 -98 -87 -268 -151 -508 -185 -685 -22 -113 -25 -329
-6 -364 14 -23 15 -22 49 39 149 269 557 653 887 835 l69 38 -7 -29 c-55 -218
-126 -694 -103 -694 3 0 37 48 75 108 169 257 309 451 423 584 l57 67 6 -47
c3 -26 8 -90 11 -142 7 -110 40 -324 59 -378 l13 -37 16 56 c23 79 80 158 196
274 74 73 104 96 112 88 8 -8 5 -28 -14 -75 -14 -34 -33 -101 -42 -148 -21
-108 -33 -360 -16 -360 6 0 11 6 11 13 0 33 101 313 145 402 42 83 54 100 75
103 54 5 55 2 55 -245 0 -125 -3 -257 -7 -293 l-8 -65 30 35 c42 49 110 194
159 335 61 176 55 166 93 158 18 -3 34 -7 35 -7 1 -1 7 -60 12 -132 9 -117 28
-209 49 -241 4 -7 15 47 25 125 9 75 22 159 29 186 l13 50 72 0 72 1 22 -60
c12 -33 34 -82 49 -110 32 -56 106 -134 96 -100 -27 90 -46 187 -46 232 0 49
2 53 24 53 13 0 31 3 40 6 12 4 26 -31 72 -173 31 -98 81 -261 109 -361 l52
-184 12 123 c12 128 25 254 41 394 5 44 12 124 16 178 6 81 10 99 26 108 16 9
22 3 44 -46 37 -84 99 -269 120 -358 10 -42 21 -74 25 -70 12 13 37 152 56
307 10 80 21 146 24 146 11 0 162 -178 210 -248 75 -108 159 -287 159 -339 0
-9 2 -14 5 -11 3 3 10 51 15 106 14 148 -9 413 -50 587 -5 22 -10 45 -10 52 0
6 40 -18 89 -55 122 -92 230 -154 346 -201 86 -35 101 -44 117 -75 10 -20 21
-36 23 -36 3 0 -2 14 -10 31 -9 17 -15 32 -13 34 2 2 21 0 43 -5 22 -5 55 -10
74 -10 l34 0 -59 41 c-83 58 -160 135 -198 199 -32 55 -99 210 -93 216 2 2 19
0 38 -5 19 -4 59 -14 89 -20 211 -48 283 -87 500 -276 74 -64 161 -136 194
-158 32 -23 77 -58 100 -77 22 -19 34 -26 26 -16 -14 18 -14 19 5 12 56 -23
60 -21 32 15 -74 98 -147 320 -232 707 -5 20 -3 22 22 16 50 -12 102 -43 174
-106 39 -33 66 -51 60 -39 -7 11 -9 21 -6 21 6 0 172 -133 318 -255 37 -31 67
-54 67 -51 0 3 -90 80 -199 171 l-200 166 -25 67 c-22 58 -66 191 -66 198 0 3
112 -5 220 -17 195 -22 259 -49 359 -155 115 -120 202 -244 254 -359 l18 -40
-5 140 c-3 77 -8 150 -12 163 -6 22 -1 21 85 -22 50 -26 91 -44 91 -41 0 3
-41 25 -91 50 -74 38 -92 51 -101 77 -27 76 -110 230 -166 305 l-61 82 47 -20
c26 -11 59 -33 74 -51 22 -25 26 -27 21 -10 -5 20 3 18 98 -24 194 -86 343
-156 552 -260 114 -57 207 -102 207 -99 0 8 -509 259 -704 347 -150 68 -171
80 -183 109 -7 17 -13 32 -13 33 0 1 71 -34 158 -77 344 -175 600 -261 854
-287 177 -18 180 -15 63 56 -112 69 -240 163 -362 266 -96 81 -286 272 -341
343 -47 60 -116 174 -110 181 3 2 57 -9 120 -25 129 -33 275 -98 356 -160 28
-23 52 -39 52 -37 0 2 -33 75 -74 162 -86 186 -119 272 -112 291 3 7 1 13 -3
13 -8 0 -51 112 -51 132 0 13 30 10 188 -22 102 -20 170 -40 213 -61 122 -60
341 -222 486 -359 35 -33 65 -60 67 -60 11 0 -28 115 -68 196 -69 143 -205
349 -393 593 -35 45 -62 85 -60 88 3 2 46 -16 96 -41 50 -26 91 -44 91 -41 0
16 -77 154 -139 249 -39 60 -71 115 -71 122 0 7 -12 20 -27 28 -59 32 61 4
225 -53 90 -31 139 -42 212 -47 155 -10 312 24 425 94 35 23 37 26 20 33 -11
4 -36 8 -56 8 -62 1 -236 40 -346 77 -107 36 -313 124 -313 133 0 3 33 7 73 8
66 2 437 59 446 69 9 9 -136 66 -319 124 -107 35 -224 76 -260 92 -72 32 -220
117 -220 125 0 12 392 -7 555 -26 184 -22 230 -30 405 -66 147 -30 334 -65
336 -62 2 1 -27 43 -64 92 -75 103 -227 258 -322 331 -155 117 -357 219 -515
258 -59 15 -56 15 135 13 209 -3 190 0 339 -64 20 -9 -66 112 -117 163 -26 27
-77 60 -132 86 -49 24 -89 45 -89 48 -1 4 47 26 107 49 319 129 668 306 692
351 13 25 12 25 -135 5 -113 -16 -555 -33 -555 -22 0 3 21 16 48 27 26 12 81
41 122 65 86 50 168 75 255 76 33 0 78 3 100 7 37 7 24 13 -220 94 -284 95
-532 167 -665 193 -148 28 -144 24 -60 56 110 43 318 112 450 149 63 18 185
59 270 92 85 33 195 70 245 82 l89 23 -64 31 c-74 36 -199 66 -345 82 -124 13
-437 14 -487 1 -21 -5 -38 -6 -38 -2 0 17 129 81 456 227 306 136 353 159 332
167 -12 5 -175 12 -360 16 l-338 6 58 46 c151 123 287 268 365 391 39 59 77
161 77 203 0 25 -2 24 -79 -30 -44 -31 -135 -84 -203 -118 -133 -68 -347 -161
-354 -154 -4 4 81 326 88 332 14 13 153 93 192 111 l50 23 -27 10 c-15 6 -57
16 -93 23 -36 6 -68 17 -71 23 -2 7 9 66 26 131 198 787 302 1523 272 1924
-35 446 -180 619 -467 555 -300 -67 -651 -253 -1001 -532 -175 -139 -326 -278
-537 -494 l-196 -201 -178 -89 c-142 -72 -490 -239 -498 -239 -1 0 8 19 20 43
18 36 21 59 20 162 -1 124 -33 316 -59 351 -11 15 -16 10 -44 -42 -110 -206
-361 -444 -469 -444 l-25 0 6 228 c4 125 11 245 16 267 6 22 9 41 7 42 -11 11
-294 -115 -575 -256 -79 -40 -145 -71 -147 -68 -2 2 -37 74 -79 161 l-75 157
-73 -73 c-39 -41 -104 -92 -142 -115 -39 -23 -94 -65 -123 -94 l-54 -53 -36
44 c-20 25 -59 69 -87 99 -98 104 -378 331 -392 317 -6 -6 -49 -239 -69 -373
-4 -27 -12 -43 -21 -43 -7 0 -64 16 -126 36 -258 83 -460 172 -555 244 l-53
41 7 -48 c3 -26 22 -122 41 -213 36 -176 53 -266 53 -289 0 -23 -67 -4 -160
45 -46 25 -172 103 -280 174 -107 70 -226 144 -265 163 -67 33 -125 53 -125
43 0 -3 24 -43 53 -88 110 -170 236 -402 226 -413 -6 -6 -280 122 -509 238
l-165 83 -260 260 c-143 144 -315 306 -382 361 -389 321 -734 516 -1062 599
-105 27 -177 30 -234 10z m7343 -8132 c57 -37 174 -144 158 -144 -30 0 -120
59 -189 124 -93 87 -81 95 31 20z"/>
<path d="M10528 4173 c7 -3 16 -2 19 1 4 3 -2 6 -13 5 -11 0 -14 -3 -6 -6z"/>
<path d="M10278 4133 c6 -2 18 -2 25 0 6 3 1 5 -13 5 -14 0 -19 -2 -12 -5z"/>
<path d="M10550 2905 c0 -2 23 -16 50 -30 28 -14 50 -23 50 -20 0 2 -22 16
-50 30 -27 14 -50 23 -50 20z"/>
<path d="M9990 2845 c0 -3 50 -30 110 -60 61 -30 110 -53 110 -50 0 3 -49 30
-110 60 -60 30 -110 53 -110 50z"/>
<path d="M10660 2845 c0 -2 18 -14 40 -25 22 -11 40 -18 40 -15 0 2 -18 14
-40 25 -22 11 -40 18 -40 15z"/>
<path d="M10770 2786 c0 -3 9 -10 20 -16 11 -6 20 -8 20 -6 0 3 -9 10 -20 16
-11 6 -20 8 -20 6z"/>
<path d="M10820 2756 c0 -3 9 -10 20 -16 11 -6 20 -8 20 -6 0 3 -9 10 -20 16
-11 6 -20 8 -20 6z"/>
<path d="M10890 2716 c0 -3 9 -10 20 -16 11 -6 20 -8 20 -6 0 3 -9 10 -20 16
-11 6 -20 8 -20 6z"/>
<path d="M10260 2706 c0 -3 14 -12 30 -21 17 -9 30 -13 30 -11 0 3 -13 12 -30
21 -16 9 -30 13 -30 11z"/>
<path d="M10370 2646 c0 -3 14 -12 30 -21 17 -9 30 -13 30 -11 0 3 -13 12 -30
21 -16 9 -30 13 -30 11z"/>
<path d="M9450 2587 c0 -2 15 -16 33 -33 l32 -29 -29 33 c-28 30 -36 37 -36
29z"/>
<path d="M9520 2527 c0 -2 15 -16 33 -33 l32 -29 -29 33 c-28 30 -36 37 -36
29z"/>
<path d="M9620 2435 c13 -14 26 -25 28 -25 3 0 -5 11 -18 25 -13 14 -26 25
-28 25 -3 0 5 -11 18 -25z"/>
<path d="M8325 2220 c19 -38 38 -70 40 -70 3 0 -11 32 -30 70 -19 39 -38 70
-40 70 -3 0 11 -31 30 -70z"/>
<path d="M9020 2236 c0 -2 8 -10 18 -17 15 -13 16 -12 3 4 -13 16 -21 21 -21
13z"/>
</g>
</svg>
